<?xml version="1.0" standalone="no"?>
<!DOCTYPE svg PUBLIC "-//W3C//DTD SVG 20010904//EN"
 "http://www.w3.org/TR/2001/REC-SVG-20010904/DTD/svg10.dtd">
<svg version="1.0" xmlns="http://www.w3.org/2000/svg"
 width="170.000000pt" height="170.000000pt" viewBox="0 0 170.000000 170.000000"
 preserveAspectRatio="xMidYMid meet">

<g transform="translate(0.000000,170.000000) scale(0.100000,-0.100000)"
fill="#000000" stroke="none">
<path d="M1307 1596 c-45 -22 -49 -22 -99 -9 -41 11 -91 13 -218 8 -91 -3
-172 -6 -180 -6 -8 0 -36 3 -61 6 -61 9 -111 -17 -178 -92 -56 -63 -59 -71
-35 -80 11 -4 33 13 71 55 62 71 114 94 160 73 20 -9 47 -9 121 0 113 14 280
7 342 -15 38 -13 46 -13 60 -1 27 24 84 43 113 38 45 -9 84 -57 107 -130 25
-82 25 -146 0 -202 l-20 -43 36 -41 c53 -58 86 -137 92 -220 5 -67 4 -69 -17
-62 -25 7 -25 6 -9 -49 19 -65 64 -92 52 -31 -4 22 -2 41 6 50 8 10 11 41 8
92 -4 85 -33 163 -86 231 -27 34 -28 39 -16 67 26 60 13 200 -27 277 -17 33
-60 78 -91 94 -39 20 -78 17 -131 -10z"/>
<path d="M1300 1484 c-36 -13 -70 -22 -76 -20 -6 2 -74 12 -153 22 -158 19
-189 13 -127 -26 35 -21 66 -56 66 -73 0 -5 -13 2 -30 16 -37 31 -111 48 -168
38 -38 -8 -41 -7 -30 8 7 9 20 21 28 28 28 23 -11 15 -77 -16 -59 -28 -113
-85 -113 -118 0 -20 17 -15 23 7 3 14 13 19 33 19 16 -1 56 2 90 6 64 8 105
-5 135 -41 12 -16 12 -17 -3 -11 -45 17 -90 18 -148 3 -81 -21 -119 -39 -169
-82 l-41 -35 -11 27 c-5 16 -8 39 -4 51 7 31 -3 29 -50 -12 -35 -30 -37 -34
-18 -35 12 0 24 -4 27 -8 2 -4 -12 -7 -32 -6 -39 1 -72 -19 -72 -44 0 -12 3
-12 23 1 38 25 72 24 107 -1 54 -41 89 -45 130 -19 66 44 127 42 178 -5 12
-12 22 -30 22 -40 0 -17 -3 -16 -37 7 -46 30 -53 31 -53 4 0 -11 5 -17 10 -14
6 4 27 -3 47 -15 20 -11 42 -19 49 -16 7 3 16 -4 19 -15 4 -11 9 -18 12 -15 8
8 79 -30 105 -57 13 -13 42 -32 65 -43 25 -11 43 -26 43 -36 0 -9 20 -37 44
-63 40 -41 45 -44 51 -26 3 11 3 35 0 53 -5 26 -15 37 -48 53 -22 11 -58 34
-79 52 -21 17 -47 35 -58 38 -13 4 -20 15 -20 32 0 21 -4 24 -23 19 -17 -4
-37 7 -82 46 -33 27 -66 60 -74 72 -7 13 -33 35 -57 50 -24 15 -46 32 -49 36
-3 5 16 13 42 19 44 9 50 8 73 -13 29 -26 86 -45 151 -50 45 -4 121 -36 134
-56 3 -5 15 -10 26 -10 10 0 19 -7 19 -15 0 -8 8 -15 19 -15 10 0 24 -7 31
-15 7 -9 19 -14 27 -11 7 3 15 -4 19 -18 3 -12 18 -30 34 -39 l29 -17 -9 30
c-18 64 -90 150 -155 183 -39 21 -11 21 48 1 89 -30 164 -126 203 -259 13 -46
28 -71 63 -105 57 -57 63 -41 21 58 -36 86 -37 89 -5 68 32 -21 46 -20 39 2
-18 55 -70 145 -96 163 l-29 21 31 19 c34 21 60 72 60 117 0 51 -29 130 -57
151 -31 25 -40 25 -123 -5z m102 -61 c24 -21 23 -36 -1 -23 -28 15 -67 12 -81
-5 -7 -8 -10 -28 -8 -45 3 -16 2 -30 -2 -30 -13 0 -100 62 -100 71 0 5 1 9 3
9 1 0 27 9 57 20 68 24 108 25 132 3z m-291 -220 c13 -16 12 -17 -3 -4 -17 13
-22 21 -14 21 2 0 10 -8 17 -17z m-534 -29 c-3 -3 -12 -4 -19 -1 -8 3 -5 6 6
6 11 1 17 -2 13 -5z"/>
<path d="M408 1357 c-76 -56 -94 -74 -86 -85 6 -7 18 -10 26 -7 22 8 182 128
182 136 0 4 -6 11 -12 17 -10 7 -39 -9 -110 -61z"/>
<path d="M229 1218 c-14 -24 -19 -45 -16 -78 3 -38 -1 -51 -28 -85 -68 -88
-79 -106 -64 -116 18 -11 29 -11 29 0 0 10 50 71 94 114 26 24 28 31 17 53
-16 37 -14 68 10 98 11 14 17 30 14 36 -12 19 -35 10 -56 -22z"/>
<path d="M331 1154 c-25 -32 -26 -43 -6 -71 15 -21 11 -25 -76 -110 -122 -118
-151 -175 -111 -221 17 -20 67 -32 87 -20 6 3 25 9 43 13 18 4 46 18 62 32 35
29 56 23 38 -10 -6 -12 -26 -40 -45 -63 -18 -23 -33 -46 -33 -53 0 -6 15 -20
33 -31 70 -43 211 -15 276 54 23 25 20 52 -5 42 -7 -3 -16 -1 -19 4 -7 12
-145 81 -210 106 -56 21 -132 61 -140 74 -11 17 61 22 98 7 20 -9 45 -13 55
-10 11 2 35 -3 53 -13 50 -26 125 -33 191 -18 49 12 64 11 115 -3 79 -21 95
-21 99 0 2 18 -64 69 -110 83 -11 4 -26 13 -34 20 -16 17 -207 20 -217 4 -13
-21 -24 -9 -20 23 2 17 6 55 9 84 l5 51 -52 23 c-29 13 -55 25 -58 27 -4 2
-16 -9 -28 -24z m26 -230 c-3 -3 -12 -4 -19 -1 -8 3 -5 6 6 6 11 1 17 -2 13
-5z m108 -24 c3 -6 -1 -7 -9 -4 -18 7 -21 14 -7 14 6 0 13 -4 16 -10z m98 -17
c-7 -2 -19 -2 -25 0 -7 3 -2 5 12 5 14 0 19 -2 13 -5z"/>
<path d="M690 1115 c0 -8 -8 -15 -17 -15 -22 0 -87 -76 -73 -85 24 -15 71 -7
95 15 29 28 36 100 10 100 -8 0 -15 -7 -15 -15z"/>
<path d="M500 1090 c6 -11 18 -20 27 -20 14 0 14 2 -2 20 -10 11 -22 20 -27
20 -5 0 -4 -9 2 -20z"/>
<path d="M747 1067 c-5 -21 -17 -47 -27 -57 -15 -15 -16 -19 -4 -24 19 -7 47
54 42 93 -3 23 -4 21 -11 -12z"/>
<path d="M85 906 c-22 -33 -55 -130 -55 -161 0 -82 113 -191 278 -268 59 -27
77 -31 155 -32 76 0 91 3 103 19 20 27 57 8 83 -42 23 -44 20 -52 -20 -52 -82
0 -44 -108 74 -210 97 -85 142 -104 239 -104 66 0 86 5 142 33 46 23 77 46
101 78 64 84 81 203 42 283 -20 40 -16 47 21 34 24 -9 27 -14 27 -56 0 -26 5
-52 12 -59 28 -28 187 32 213 81 6 11 19 20 30 20 26 0 87 74 105 131 20 58
17 113 -6 117 -12 2 -17 -8 -22 -47 -6 -52 -35 -119 -60 -140 -13 -10 -16 -8
-22 8 -9 30 -22 26 -30 -10 -10 -44 -67 -96 -123 -112 l-47 -14 -6 45 c-7 57
-35 82 -94 82 -26 0 -50 -6 -59 -16 -20 -19 -20 -17 8 -59 34 -49 41 -103 22
-168 -34 -119 -113 -179 -242 -185 -89 -5 -139 15 -225 90 -86 75 -122 138
-80 138 10 0 29 9 42 19 23 18 23 21 10 58 -22 60 -50 93 -98 114 -44 19 -103
26 -103 12 0 -3 8 -15 18 -26 17 -19 16 -19 -69 -16 -73 3 -95 9 -152 38 -80
40 -173 114 -205 161 -28 42 -25 75 18 167 15 34 26 64 22 67 -12 13 -32 5
-47 -18z"/>
<path d="M1270 817 c0 -24 6 -49 13 -56 6 -8 7 -11 1 -8 -7 4 -13 -9 -17 -36
-3 -23 -9 -53 -13 -67 l-7 -25 29 29 c19 19 25 30 17 33 -15 6 -17 43 -3 43 6
0 10 -5 10 -12 0 -8 5 -7 16 4 9 9 18 41 21 77 l6 61 -37 0 c-36 0 -36 0 -36
-43z"/>
<path d="M845 830 c4 -6 10 -8 15 -5 5 3 21 0 36 -5 24 -9 25 -9 14 5 -14 17
-75 21 -65 5z"/>
<path d="M1420 786 c0 -18 -6 -52 -14 -74 -11 -30 -12 -43 -3 -52 9 -9 8 -11
-4 -8 -22 4 -93 -59 -76 -69 7 -4 24 -29 37 -55 14 -27 28 -48 31 -48 9 0 45
43 59 70 8 14 16 65 19 114 l6 89 33 -27 32 -28 0 29 c0 32 -16 53 -39 53 -9
0 -27 9 -41 20 -34 27 -40 25 -40 -14z"/>
<path d="M1010 798 c0 -4 6 -8 13 -9 6 -1 1 -4 -13 -8 -21 -6 -17 -9 37 -29
49 -18 62 -28 67 -48 8 -32 32 -58 46 -49 5 3 12 22 16 42 6 33 3 40 -25 65
-17 15 -40 28 -51 28 -10 0 -21 4 -25 9 -7 12 -65 11 -65 -1z"/>
<path d="M195 640 c9 -14 101 -60 120 -60 31 0 13 20 -40 45 -58 26 -91 32
-80 15z"/>
<path d="M591 597 l-35 -21 30 -13 c16 -6 41 -12 56 -13 27 0 27 1 14 32 -17
40 -23 41 -65 15z"/>
<path d="M1079 586 c-26 -13 -86 -16 -105 -3 -19 11 -23 -2 -12 -41 6 -20 8
-66 6 -102 -8 -104 -58 -180 -143 -215 l-39 -17 39 -24 c47 -28 126 -46 163
-38 65 16 131 64 158 116 27 51 12 128 -24 128 -48 0 -57 80 -17 145 39 63 30
81 -26 51z"/>
<path d="M403 535 c-7 -19 -5 -22 30 -30 32 -8 37 10 10 31 -24 18 -32 17 -40
-1z"/>
<path d="M913 379 c-6 -6 -26 -12 -44 -14 -39 -3 -48 -19 -23 -46 23 -26 39
-24 62 9 33 48 37 83 5 51z"/>
<path d="M757 323 c-5 -7 -24 -13 -43 -13 -24 0 -34 -4 -32 -12 5 -15 76 -53
84 -45 3 3 4 22 2 43 -2 25 -6 34 -11 27z"/>
</g>
</svg>
